# xmcd
#
# Track frame offsets: 
#        150
#        11688
#        30458
#        42651
#        55515
#        68213
#        85215
#        96941
#        110394
#        128223
#        142142
#        153640
#        168314
#        182087
#        196271
#        208662
#
# Disc length: 3127 seconds
#
# Revision: 3
# Processed by: cddbd v1.5.2PL0 Copyright (c) Steve Scherf et al.
# Submitted via: ExactAudioCopyFreeDBPlugin 1.0
#
DISCID=e00c3510
DTITLE=Feel The Blues - Feel The Blues - CD2 - Taste Of Blues
DYEAR=2003
DGENRE=Blues
TTITLE0=John Lee Hooker - Boom Boom
TTITLE1=Lightnin' Hopkins - Black Cat Blues
TTITLE2=Johnny "Guitar" Watson - Too Tired
TTITLE3=Bukka White - Special Stream Line
TTITLE4=Little Walter - Mellow Down Easy
TTITLE5=Bo Diddley - Say Boss Man
TTITLE6=Buddy Guy - Try To Quit You Baby
TTITLE7=Clarence Gatemouth Brwon - Win With Me Baby
TTITLE8=Memphis Slim - In The Evenin'
TTITLE9=King Curtis Feat. Ronnie Miller - Hello Sunshine
TTITLE10=Screamin' Jay Hawkins - Well I Tried
TTITLE11=Sonny Boy Williamson - Deep Down In The Ground
TTITLE12=Big Bill Broonzy - Big Bill Blues
TTITLE13=Leroy Carr - Mitnight Hour Blues
TTITLE14=Champion Jack Dupree - Morning Tea
TTITLE15=Guitar Slim - Walkin' Boogie
EXTD=YEAR: 2003 ID3G: 0
EXTT0=
EXTT1=
EXTT2=
EXTT3=
EXTT4=
EXTT5=
EXTT6=
EXTT7=
EXTT8=
EXTT9=
EXTT10=
EXTT11=
EXTT12=
EXTT13=
EXTT14=
EXTT15=
PLAYORDER=
